<mxfile host="Electron" modified="2024-06-04T11:55:08.643Z" agent="Mozilla/5.0 (Windows NT 10.0; Win64; x64) AppleWebKit/537.36 (KHTML, like Gecko) draw.io/24.4.13 Chrome/124.0.6367.207 Electron/30.0.6 Safari/537.36" etag="BhURsqj8285pJrfMangE" version="24.4.13" type="device">
  <diagram name="Page-1" id="2YBvvXClWsGukQMizWep">
    <mxGraphModel dx="790" dy="694" grid="1" gridSize="10" guides="1" tooltips="1" connect="1" arrows="1" fold="1" page="1" pageScale="1" pageWidth="850" pageHeight="1100" math="0" shadow="0">
      <root>
        <mxCell id="0" />
        <mxCell id="1" parent="0" />
        <mxCell id="VU1JaTsqC79YVxp9AiSb-1" value="Benutzer" style="shape=umlActor;verticalLabelPosition=bottom;verticalAlign=top;html=1;outlineConnect=0;" vertex="1" parent="1">
          <mxGeometry x="40" y="40" width="40" height="80" as="geometry" />
        </mxCell>
        <mxCell id="VU1JaTsqC79YVxp9AiSb-2" value="" style="endArrow=none;dashed=1;html=1;dashPattern=1 3;strokeWidth=2;rounded=0;" edge="1" parent="1" source="VU1JaTsqC79YVxp9AiSb-11">
          <mxGeometry width="50" height="50" relative="1" as="geometry">
            <mxPoint x="60" y="680" as="sourcePoint" />
            <mxPoint x="60" y="140" as="targetPoint" />
          </mxGeometry>
        </mxCell>
        <mxCell id="VU1JaTsqC79YVxp9AiSb-3" value="&lt;div&gt;&amp;lt;&amp;lt;Frontend&amp;gt;&amp;gt;&lt;/div&gt;&lt;div&gt;Chatfenster&lt;/div&gt;" style="html=1;whiteSpace=wrap;" vertex="1" parent="1">
          <mxGeometry x="120" y="80" width="120" height="40" as="geometry" />
        </mxCell>
        <mxCell id="VU1JaTsqC79YVxp9AiSb-4" value="&amp;lt;&amp;lt;Backend&amp;gt;&amp;gt;&lt;div&gt;Server&lt;/div&gt;" style="html=1;whiteSpace=wrap;" vertex="1" parent="1">
          <mxGeometry x="280" y="80" width="120" height="40" as="geometry" />
        </mxCell>
        <mxCell id="VU1JaTsqC79YVxp9AiSb-5" value="&amp;lt;&amp;lt;Backend&amp;gt;&amp;gt;&lt;div&gt;Datenbank&lt;/div&gt;" style="html=1;whiteSpace=wrap;" vertex="1" parent="1">
          <mxGeometry x="440" y="80" width="120" height="40" as="geometry" />
        </mxCell>
        <mxCell id="VU1JaTsqC79YVxp9AiSb-6" value="&amp;lt;&amp;lt;Extern&amp;gt;&amp;gt;&lt;div&gt;Ollama&lt;/div&gt;" style="html=1;whiteSpace=wrap;" vertex="1" parent="1">
          <mxGeometry x="600" y="80" width="120" height="40" as="geometry" />
        </mxCell>
        <mxCell id="VU1JaTsqC79YVxp9AiSb-7" value="" style="endArrow=none;dashed=1;html=1;dashPattern=1 3;strokeWidth=2;rounded=0;" edge="1" parent="1">
          <mxGeometry width="50" height="50" relative="1" as="geometry">
            <mxPoint x="179.6052631578948" y="180" as="sourcePoint" />
            <mxPoint x="179.5" y="120" as="targetPoint" />
          </mxGeometry>
        </mxCell>
        <mxCell id="VU1JaTsqC79YVxp9AiSb-8" value="" style="endArrow=none;dashed=1;html=1;dashPattern=1 3;strokeWidth=2;rounded=0;" edge="1" parent="1" source="VU1JaTsqC79YVxp9AiSb-15">
          <mxGeometry width="50" height="50" relative="1" as="geometry">
            <mxPoint x="340" y="680" as="sourcePoint" />
            <mxPoint x="339.5" y="120" as="targetPoint" />
          </mxGeometry>
        </mxCell>
        <mxCell id="VU1JaTsqC79YVxp9AiSb-9" value="" style="endArrow=none;dashed=1;html=1;dashPattern=1 3;strokeWidth=2;rounded=0;" edge="1" parent="1" source="VU1JaTsqC79YVxp9AiSb-17">
          <mxGeometry width="50" height="50" relative="1" as="geometry">
            <mxPoint x="500" y="680" as="sourcePoint" />
            <mxPoint x="499.5" y="120" as="targetPoint" />
          </mxGeometry>
        </mxCell>
        <mxCell id="VU1JaTsqC79YVxp9AiSb-12" value="" style="endArrow=none;dashed=1;html=1;dashPattern=1 3;strokeWidth=2;rounded=0;" edge="1" parent="1" target="VU1JaTsqC79YVxp9AiSb-11">
          <mxGeometry width="50" height="50" relative="1" as="geometry">
            <mxPoint x="60" y="520" as="sourcePoint" />
            <mxPoint x="60" y="140" as="targetPoint" />
          </mxGeometry>
        </mxCell>
        <mxCell id="VU1JaTsqC79YVxp9AiSb-11" value="" style="rounded=0;whiteSpace=wrap;html=1;" vertex="1" parent="1">
          <mxGeometry x="50" y="170" width="20" height="280" as="geometry" />
        </mxCell>
        <mxCell id="VU1JaTsqC79YVxp9AiSb-16" value="" style="endArrow=none;dashed=1;html=1;dashPattern=1 3;strokeWidth=2;rounded=0;" edge="1" parent="1" target="VU1JaTsqC79YVxp9AiSb-15">
          <mxGeometry width="50" height="50" relative="1" as="geometry">
            <mxPoint x="340" y="520" as="sourcePoint" />
            <mxPoint x="339.5" y="120" as="targetPoint" />
          </mxGeometry>
        </mxCell>
        <mxCell id="VU1JaTsqC79YVxp9AiSb-15" value="" style="rounded=0;whiteSpace=wrap;html=1;" vertex="1" parent="1">
          <mxGeometry x="330" y="190" width="20" height="180" as="geometry" />
        </mxCell>
        <mxCell id="VU1JaTsqC79YVxp9AiSb-18" value="" style="endArrow=none;dashed=1;html=1;dashPattern=1 3;strokeWidth=2;rounded=0;" edge="1" parent="1" target="VU1JaTsqC79YVxp9AiSb-17">
          <mxGeometry width="50" height="50" relative="1" as="geometry">
            <mxPoint x="500" y="520" as="sourcePoint" />
            <mxPoint x="499.5" y="120" as="targetPoint" />
          </mxGeometry>
        </mxCell>
        <mxCell id="VU1JaTsqC79YVxp9AiSb-17" value="" style="rounded=0;whiteSpace=wrap;html=1;" vertex="1" parent="1">
          <mxGeometry x="490" y="230" width="20" height="100" as="geometry" />
        </mxCell>
        <mxCell id="VU1JaTsqC79YVxp9AiSb-21" value="" style="rounded=0;whiteSpace=wrap;html=1;" vertex="1" parent="1">
          <mxGeometry x="170" y="170" width="20" height="260" as="geometry" />
        </mxCell>
        <mxCell id="VU1JaTsqC79YVxp9AiSb-22" value="bewertet Antwort" style="html=1;verticalAlign=bottom;endArrow=block;edgeStyle=elbowEdgeStyle;elbow=vertical;curved=0;rounded=0;exitX=0.991;exitY=0.062;exitDx=0;exitDy=0;exitPerimeter=0;" edge="1" parent="1" source="VU1JaTsqC79YVxp9AiSb-11">
          <mxGeometry relative="1" as="geometry">
            <mxPoint x="80" y="200" as="sourcePoint" />
            <Array as="points">
              <mxPoint x="165" y="200" />
            </Array>
            <mxPoint x="170" y="200" as="targetPoint" />
          </mxGeometry>
        </mxCell>
        <mxCell id="VU1JaTsqC79YVxp9AiSb-23" value="Bewertung + ID senden" style="html=1;verticalAlign=bottom;endArrow=block;edgeStyle=elbowEdgeStyle;elbow=vertical;curved=0;rounded=0;exitX=0.991;exitY=0.062;exitDx=0;exitDy=0;exitPerimeter=0;entryX=0;entryY=0.168;entryDx=0;entryDy=0;entryPerimeter=0;" edge="1" parent="1" target="VU1JaTsqC79YVxp9AiSb-15">
          <mxGeometry relative="1" as="geometry">
            <mxPoint x="190" y="220" as="sourcePoint" />
            <Array as="points">
              <mxPoint x="285" y="221" />
            </Array>
            <mxPoint x="320" y="221" as="targetPoint" />
          </mxGeometry>
        </mxCell>
        <mxCell id="VU1JaTsqC79YVxp9AiSb-26" value="" style="endArrow=none;dashed=1;html=1;dashPattern=1 3;strokeWidth=2;rounded=0;entryX=0.5;entryY=1;entryDx=0;entryDy=0;" edge="1" parent="1" target="VU1JaTsqC79YVxp9AiSb-6">
          <mxGeometry width="50" height="50" relative="1" as="geometry">
            <mxPoint x="660" y="520" as="sourcePoint" />
            <mxPoint x="720" y="210" as="targetPoint" />
          </mxGeometry>
        </mxCell>
        <mxCell id="VU1JaTsqC79YVxp9AiSb-27" value="Bewertung bei ID&lt;div&gt;ändern&lt;/div&gt;" style="html=1;verticalAlign=bottom;endArrow=block;edgeStyle=elbowEdgeStyle;elbow=vertical;curved=0;rounded=0;exitX=0.991;exitY=0.062;exitDx=0;exitDy=0;exitPerimeter=0;entryX=-0.127;entryY=0.072;entryDx=0;entryDy=0;entryPerimeter=0;" edge="1" parent="1">
          <mxGeometry relative="1" as="geometry">
            <mxPoint x="353" y="250" as="sourcePoint" />
            <Array as="points">
              <mxPoint x="448" y="251" />
            </Array>
            <mxPoint x="490" y="251" as="targetPoint" />
          </mxGeometry>
        </mxCell>
        <mxCell id="VU1JaTsqC79YVxp9AiSb-28" value="Rückgabe&lt;br&gt;OK/Fehler" style="html=1;verticalAlign=bottom;endArrow=open;dashed=1;endSize=8;edgeStyle=elbowEdgeStyle;elbow=vertical;curved=0;rounded=0;" edge="1" parent="1">
          <mxGeometry relative="1" as="geometry">
            <mxPoint x="350" y="310" as="targetPoint" />
            <Array as="points">
              <mxPoint x="415" y="310" />
            </Array>
            <mxPoint x="490" y="310" as="sourcePoint" />
          </mxGeometry>
        </mxCell>
        <mxCell id="VU1JaTsqC79YVxp9AiSb-29" value="Rückgabe&lt;br&gt;OK/Fehlermeldung" style="html=1;verticalAlign=bottom;endArrow=open;dashed=1;endSize=8;edgeStyle=elbowEdgeStyle;elbow=vertical;curved=0;rounded=0;" edge="1" parent="1">
          <mxGeometry relative="1" as="geometry">
            <mxPoint x="190" y="350" as="targetPoint" />
            <Array as="points">
              <mxPoint x="255" y="350" />
            </Array>
            <mxPoint x="330" y="350" as="sourcePoint" />
          </mxGeometry>
        </mxCell>
        <mxCell id="VU1JaTsqC79YVxp9AiSb-30" value="" style="endArrow=none;dashed=1;html=1;dashPattern=1 3;strokeWidth=2;rounded=0;" edge="1" parent="1">
          <mxGeometry width="50" height="50" relative="1" as="geometry">
            <mxPoint x="180" y="520" as="sourcePoint" />
            <mxPoint x="179.58" y="430" as="targetPoint" />
          </mxGeometry>
        </mxCell>
        <mxCell id="VU1JaTsqC79YVxp9AiSb-31" value="Ok /&amp;nbsp;&lt;div&gt;Fehlermeldung&amp;nbsp;&lt;div&gt;Anzeigen&lt;/div&gt;&lt;/div&gt;" style="html=1;verticalAlign=bottom;endArrow=open;dashed=1;endSize=8;edgeStyle=elbowEdgeStyle;elbow=vertical;curved=0;rounded=0;entryX=0.986;entryY=0.859;entryDx=0;entryDy=0;entryPerimeter=0;" edge="1" parent="1" target="VU1JaTsqC79YVxp9AiSb-11">
          <mxGeometry relative="1" as="geometry">
            <mxPoint x="30" y="410" as="targetPoint" />
            <Array as="points">
              <mxPoint x="95" y="410" />
            </Array>
            <mxPoint x="170" y="410" as="sourcePoint" />
          </mxGeometry>
        </mxCell>
      </root>
    </mxGraphModel>
  </diagram>
</mxfile>
